# xmcd
#
# Track frame offsets:
# 150
# 19928
# 28451
# 47471
# 60372
# 77391
# 93045
# 105131
# 120280
# 136666
#
# Disc length: 2197 seconds
#
# Revision: 1
# Processed by: cddbd v1.5.2PL0 Copyright (c) Steve Scherf et al.
# Submitted via: CedeCatalogueitor 2.6.0.6 http://personales.ya.com/cdcatalogueitor
#
DISCID=6208930a
DTITLE=Uke - Uke
DYEAR=1900
DGENRE=
TTITLE0=Puntillismo
TTITLE1=No Somos Bolcheviques
TTITLE2=Sístole
TTITLE3=Pajarillo
TTITLE4=Piedra, Papel, Tijera
TTITLE5=La Ley Del Más Débil
TTITLE6=Tantamplán
TTITLE7=Mesa De Tenis
TTITLE8=Uke Y La Masonería
TTITLE9=La Rosa De Los Vientos
EXTD=
EXTT0=
EXTT1=
EXTT2=
EXTT3=
EXTT4=
EXTT5=
EXTT6=
EXTT7=
EXTT8=
EXTT9=
PLAYORDER=
